<svg width="148" height="148" viewBox="0 0 148 148" fill="none" xmlns="http://www.w3.org/2000/svg">
<path fill-rule="evenodd" clip-rule="evenodd" d="M115.08 43.7116C115.08 46.2606 113.013 48.327 110.464 48.327L36.6183 48.327C34.0693 48.327 32.003 46.2606 32.003 43.7116C32.003 41.1626 34.0693 39.0962 36.6183 39.0962L110.464 39.0962C113.013 39.0962 115.08 41.1626 115.08 43.7116Z" fill="#868A8E"/>
<path fill-rule="evenodd" clip-rule="evenodd" d="M115.079 74.4808C115.079 77.0298 113.013 79.0962 110.464 79.0962L36.6183 79.0962C34.0693 79.0962 32.0029 77.0298 32.0029 74.4808C32.0029 71.9318 34.0693 69.8654 36.6183 69.8654L110.464 69.8654C113.013 69.8654 115.079 71.9318 115.079 74.4808Z" fill="#868A8E"/>
<path fill-rule="evenodd" clip-rule="evenodd" d="M77 105.5C77 107.985 75.8807 110 74.5 110L34.5 110C33.1193 110 32 107.985 32 105.5C32 103.015 33.1193 101 34.5 101L74.5 101C75.8807 101 77 103.015 77 105.5Z" fill="#868A8E"/>
</svg>
