<svg width="80" height="80" viewBox="0 0 185 185" fill="none" xmlns="http://www.w3.org/2000/svg">
<path fill-rule="evenodd" clip-rule="evenodd" d="M134.08 62.7116C134.08 65.2606 132.013 67.327 129.464 67.327L55.6183 67.327C53.0693 67.327 51.003 65.2606 51.003 62.7116C51.003 60.1626 53.0693 58.0962 55.6183 58.0962L129.464 58.0962C132.013 58.0962 134.08 60.1626 134.08 62.7116Z" fill="url(#paint0_linear_27_1425)"/>
<path fill-rule="evenodd" clip-rule="evenodd" d="M134.077 92.6154C134.077 95.1644 132.01 97.2307 129.461 97.2307L55.6154 97.2307C53.0664 97.2307 51 95.1644 51 92.6154C51 90.0664 53.0664 88 55.6154 88L129.461 88C132.01 88 134.077 90.0664 134.077 92.6154Z" fill="url(#paint1_linear_27_1425)"/>
<path fill-rule="evenodd" clip-rule="evenodd" d="M94 122.5C94 124.985 92.9305 127 91.6111 127L53.3889 127C52.0695 127 51 124.985 51 122.5C51 120.015 52.0695 118 53.3889 118L91.6111 118C92.9305 118 94 120.015 94 122.5Z" fill="url(#paint2_linear_27_1425)"/>
<defs>
<linearGradient id="paint0_linear_27_1425" x1="324.5" y1="67" x2="283.838" y2="-32.9478" gradientUnits="userSpaceOnUse">
<stop/>
<stop offset="1" stop-color="white"/>
</linearGradient>
<linearGradient id="paint1_linear_27_1425" x1="324.497" y1="96.9038" x2="283.835" y2="-3.04404" gradientUnits="userSpaceOnUse">
<stop/>
<stop offset="1" stop-color="white"/>
</linearGradient>
<linearGradient id="paint2_linear_27_1425" x1="192.561" y1="126.681" x2="137.724" y2="55.1268" gradientUnits="userSpaceOnUse">
<stop/>
<stop offset="1" stop-color="white"/>
</linearGradient>
</defs>
</svg>
