<svg width="24" height="24" viewBox="0 0 82 82" fill="none" xmlns="http://www.w3.org/2000/svg">
<g filter="url(#filter0_di_1_1259)">
<g clip-path="url(#clip0_1_1259)">
<rect x="9" y="13" width="48" height="48" rx="12" fill="url(#paint0_linear_1_1259)" fill-opacity="0.04" shape-rendering="crispEdges"/>
<g style="mix-blend-mode:plus-lighter" opacity="0.5" filter="url(#filter1_f_1_1259)">
<path fill-rule="evenodd" clip-rule="evenodd" d="M47 37C47 44.732 40.732 51 33 51C25.268 51 19 44.732 19 37C19 29.268 25.268 23 33 23C40.732 23 47 29.268 47 37ZM37.924 47.9465C36.4216 48.6234 34.7548 49 33 49C30.1031 49 27.4459 47.9735 25.3724 46.2643C27.5294 42.6447 30.9989 39.9003 35.123 38.6861C36.3076 41.6581 37.2494 44.7531 37.924 47.9465ZM39.7487 46.9239C39.0841 43.9351 38.193 41.0318 37.0945 38.2327C38.009 38.0797 38.9483 38 39.9062 38C41.6366 38 43.3047 38.2596 44.8745 38.7415C44.3807 42.1382 42.4641 45.0737 39.7487 46.9239ZM44.9962 36.6933C43.3758 36.2414 41.6685 36 39.9062 36C38.6778 36 37.4767 36.1172 36.3136 36.3409C36.0102 35.6408 35.6937 34.9477 35.3643 34.262C37.9824 33.0999 40.402 31.5718 42.5577 29.7429C44.0326 31.6824 44.9307 34.0845 44.9962 36.6933ZM41.2186 28.2561C39.1947 29.9658 36.9237 31.3915 34.4667 32.4721C33.1697 29.9919 31.7017 27.6153 30.0784 25.3582C31.0136 25.1242 31.9923 25 33 25C36.1801 25 39.0713 26.237 41.2186 28.2561ZM28.1025 26.0416C24.5797 27.6184 21.9561 30.844 21.2131 34.7368C21.8958 34.787 22.5855 34.8125 23.2813 34.8125C26.5492 34.8125 29.6851 34.2492 32.5974 33.2142C31.2746 30.7071 29.7706 28.3105 28.1025 26.0416ZM21.0031 36.7267C21.001 36.8176 21 36.9087 21 37C21 39.992 22.095 42.7283 23.9062 44.8299C26.292 41.0493 29.982 38.172 34.3453 36.8311C34.0759 36.2193 33.796 35.6131 33.506 35.0127C30.3168 36.1771 26.873 36.8125 23.2813 36.8125C22.5149 36.8125 21.7552 36.7836 21.0031 36.7267Z" fill="#E84C88"/>
</g>
<path fill-rule="evenodd" clip-rule="evenodd" d="M47 37C47 44.732 40.732 51 33 51C25.268 51 19 44.732 19 37C19 29.268 25.268 23 33 23C40.732 23 47 29.268 47 37ZM37.924 47.9465C36.4216 48.6234 34.7548 49 33 49C30.1031 49 27.4459 47.9735 25.3724 46.2643C27.5294 42.6447 30.9989 39.9003 35.123 38.6861C36.3076 41.6581 37.2494 44.7531 37.924 47.9465ZM39.7487 46.9239C39.0841 43.9351 38.193 41.0318 37.0945 38.2327C38.009 38.0797 38.9483 38 39.9062 38C41.6366 38 43.3047 38.2596 44.8745 38.7415C44.3807 42.1382 42.4641 45.0737 39.7487 46.9239ZM44.9962 36.6933C43.3758 36.2414 41.6685 36 39.9062 36C38.6778 36 37.4767 36.1172 36.3136 36.3409C36.0102 35.6408 35.6937 34.9477 35.3643 34.262C37.9824 33.0999 40.402 31.5718 42.5577 29.7429C44.0326 31.6824 44.9307 34.0845 44.9962 36.6933ZM41.2186 28.2561C39.1947 29.9658 36.9237 31.3915 34.4667 32.4721C33.1697 29.9919 31.7017 27.6153 30.0784 25.3582C31.0136 25.1242 31.9923 25 33 25C36.1801 25 39.0713 26.237 41.2186 28.2561ZM28.1025 26.0416C24.5797 27.6184 21.9561 30.844 21.2131 34.7368C21.8958 34.787 22.5855 34.8125 23.2813 34.8125C26.5492 34.8125 29.6851 34.2492 32.5974 33.2142C31.2746 30.7071 29.7706 28.3105 28.1025 26.0416ZM21.0031 36.7267C21.001 36.8176 21 36.9087 21 37C21 39.992 22.095 42.7283 23.9062 44.8299C26.292 41.0493 29.982 38.172 34.3453 36.8311C34.0759 36.2193 33.796 35.6131 33.506 35.0127C30.3168 36.1771 26.873 36.8125 23.2813 36.8125C22.5149 36.8125 21.7552 36.7836 21.0031 36.7267Z" fill="#E84C88"/>
<g filter="url(#filter2_f_1_1259)">
<ellipse cx="33.5" cy="60.5" rx="11.5" ry="6.5" fill="#E84E89"/>
</g>
</g>
<rect x="9" y="13" width="48" height="48" rx="12" stroke="url(#paint1_linear_1_1259)" stroke-opacity="0.5" stroke-width="0.8" shape-rendering="crispEdges"/>
</g>
<mask id="mask0_1_1259" style="mask-type:alpha" maskUnits="userSpaceOnUse" x="17" y="21" width="32" height="32">
<path fill-rule="evenodd" clip-rule="evenodd" d="M47 37C47 44.732 40.732 51 33 51C25.268 51 19 44.732 19 37C19 29.268 25.268 23 33 23C40.732 23 47 29.268 47 37ZM37.924 47.9465C36.4216 48.6234 34.7548 49 33 49C30.1031 49 27.4459 47.9735 25.3724 46.2643C27.5294 42.6447 30.9989 39.9003 35.123 38.6861C36.3076 41.6581 37.2494 44.7531 37.924 47.9465ZM39.7487 46.9239C39.0841 43.9351 38.193 41.0318 37.0945 38.2327C38.009 38.0797 38.9483 38 39.9062 38C41.6366 38 43.3047 38.2596 44.8745 38.7415C44.3807 42.1382 42.4641 45.0737 39.7487 46.9239ZM44.9962 36.6933C43.3758 36.2414 41.6685 36 39.9062 36C38.6778 36 37.4767 36.1172 36.3136 36.3409C36.0102 35.6408 35.6937 34.9477 35.3643 34.262C37.9824 33.0999 40.402 31.5718 42.5577 29.7429C44.0326 31.6824 44.9307 34.0845 44.9962 36.6933ZM41.2186 28.2561C39.1947 29.9658 36.9237 31.3915 34.4667 32.4721C33.1697 29.9919 31.7017 27.6153 30.0784 25.3582C31.0136 25.1242 31.9923 25 33 25C36.1801 25 39.0713 26.237 41.2186 28.2561ZM28.1025 26.0416C24.5797 27.6184 21.9561 30.844 21.2131 34.7368C21.8958 34.787 22.5855 34.8125 23.2813 34.8125C26.5492 34.8125 29.6851 34.2492 32.5974 33.2142C31.2746 30.7071 29.7706 28.3105 28.1025 26.0416ZM21.0031 36.7267C21.001 36.8176 21 36.9087 21 37C21 39.992 22.095 42.7283 23.9062 44.8299C26.292 41.0493 29.982 38.172 34.3453 36.8311C34.0759 36.2193 33.796 35.6131 33.506 35.0127C30.3168 36.1771 26.873 36.8125 23.2813 36.8125C22.5149 36.8125 21.7552 36.7836 21.0031 36.7267Z" fill="#E84C88"/>
</mask>
<g mask="url(#mask0_1_1259)">
<g style="mix-blend-mode:screen" filter="url(#filter3_f_1_1259)">
<circle cx="26" cy="30" r="9" fill="#FFABCC"/>
</g>
</g>
<defs>
<filter id="filter0_di_1_1259" x="-11.4" y="-7.39999" width="92.8" height="88.8" filterUnits="userSpaceOnUse" color-interpolation-filters="sRGB">
<feFlood flood-opacity="0" result="BackgroundImageFix"/>
<feColorMatrix in="SourceAlpha" type="matrix" values="0 0 0 0 0 0 0 0 0 0 0 0 0 0 0 0 0 0 127 0" result="hardAlpha"/>
<feOffset dx="8" dy="4"/>
<feGaussianBlur stdDeviation="8"/>
<feComposite in2="hardAlpha" operator="out"/>
<feColorMatrix type="matrix" values="0 0 0 0 0 0 0 0 0 0 0 0 0 0 0 0 0 0 0.08 0"/>
<feBlend mode="normal" in2="BackgroundImageFix" result="effect1_dropShadow_1_1259"/>
<feBlend mode="normal" in="SourceGraphic" in2="effect1_dropShadow_1_1259" result="shape"/>
<feColorMatrix in="SourceAlpha" type="matrix" values="0 0 0 0 0 0 0 0 0 0 0 0 0 0 0 0 0 0 127 0" result="hardAlpha"/>
<feOffset/>
<feGaussianBlur stdDeviation="4"/>
<feComposite in2="hardAlpha" operator="arithmetic" k2="-1" k3="1"/>
<feColorMatrix type="matrix" values="0 0 0 0 0.909804 0 0 0 0 0.298039 0 0 0 0 0.533333 0 0 0 0.32 0"/>
<feBlend mode="normal" in2="shape" result="effect2_innerShadow_1_1259"/>
</filter>
<filter id="filter1_f_1_1259" x="5" y="9" width="56" height="56" filterUnits="userSpaceOnUse" color-interpolation-filters="sRGB">
<feFlood flood-opacity="0" result="BackgroundImageFix"/>
<feBlend mode="normal" in="SourceGraphic" in2="BackgroundImageFix" result="shape"/>
<feGaussianBlur stdDeviation="6" result="effect1_foregroundBlur_1_1259"/>
</filter>
<filter id="filter2_f_1_1259" x="4" y="36" width="59" height="49" filterUnits="userSpaceOnUse" color-interpolation-filters="sRGB">
<feFlood flood-opacity="0" result="BackgroundImageFix"/>
<feBlend mode="normal" in="SourceGraphic" in2="BackgroundImageFix" result="shape"/>
<feGaussianBlur stdDeviation="9" result="effect1_foregroundBlur_1_1259"/>
</filter>
<filter id="filter3_f_1_1259" x="-3" y="1" width="58" height="58" filterUnits="userSpaceOnUse" color-interpolation-filters="sRGB">
<feFlood flood-opacity="0" result="BackgroundImageFix"/>
<feBlend mode="normal" in="SourceGraphic" in2="BackgroundImageFix" result="shape"/>
<feGaussianBlur stdDeviation="10" result="effect1_foregroundBlur_1_1259"/>
</filter>
<linearGradient id="paint0_linear_1_1259" x1="9" y1="13" x2="57" y2="61" gradientUnits="userSpaceOnUse">
<stop stop-color="#F8FBFF"/>
<stop offset="1" stop-color="white" stop-opacity="0"/>
</linearGradient>
<linearGradient id="paint1_linear_1_1259" x1="10" y1="12" x2="55.5" y2="61" gradientUnits="userSpaceOnUse">
<stop stop-color="#D8D8D8" stop-opacity="0.05"/>
<stop offset="1" stop-color="white" stop-opacity="0.4"/>
</linearGradient>
<clipPath id="clip0_1_1259">
<rect x="9" y="13" width="48" height="48" rx="12" fill="white"/>
</clipPath>
</defs>
</svg>
