<svg width="24" height="24" viewBox="0 0 82 82" fill="none" xmlns="http://www.w3.org/2000/svg">
<g filter="url(#filter0_di_1_179)">
<g clip-path="url(#clip0_1_179)">
<rect x="9" y="13" width="48" height="48" rx="12" fill="url(#paint0_linear_1_179)" fill-opacity="0.04" shape-rendering="crispEdges"/>
<g style="mix-blend-mode:plus-lighter" opacity="0.5" filter="url(#filter1_f_1_179)">
<rect x="19" y="23" width="28" height="28" rx="6" fill="url(#paint1_radial_1_179)"/>
<rect x="19" y="23" width="28" height="28" rx="6" fill="url(#paint2_radial_1_179)"/>
<rect x="19" y="23" width="28" height="28" rx="6" fill="url(#paint3_radial_1_179)"/>
</g>
<rect x="19" y="23" width="28" height="28" rx="6" fill="url(#paint4_radial_1_179)"/>
<rect x="19" y="23" width="28" height="28" rx="6" fill="url(#paint5_radial_1_179)"/>
<rect x="19" y="23" width="28" height="28" rx="6" fill="url(#paint6_radial_1_179)"/>
<path d="M40 31.5C40 32.3284 39.3284 33 38.5 33C37.6716 33 37 32.3284 37 31.5C37 30.6716 37.6716 30 38.5 30C39.3284 30 40 30.6716 40 31.5Z" fill="white"/>
<path fill-rule="evenodd" clip-rule="evenodd" d="M33 42C35.7614 42 38 39.7614 38 37C38 34.2386 35.7614 32 33 32C30.2386 32 28 34.2386 28 37C28 39.7614 30.2386 42 33 42ZM33 40C34.6569 40 36 38.6569 36 37C36 35.3431 34.6569 34 33 34C31.3431 34 30 35.3431 30 37C30 38.6569 31.3431 40 33 40Z" fill="white"/>
<path fill-rule="evenodd" clip-rule="evenodd" d="M23 36.6C23 33.2397 23 31.5595 23.654 30.2761C24.2292 29.1471 25.1471 28.2292 26.2761 27.654C27.5595 27 29.2397 27 32.6 27H33.4C36.7603 27 38.4405 27 39.7239 27.654C40.8529 28.2292 41.7708 29.1471 42.346 30.2761C43 31.5595 43 33.2397 43 36.6V37.4C43 40.7603 43 42.4405 42.346 43.7239C41.7708 44.8529 40.8529 45.7708 39.7239 46.346C38.4405 47 36.7603 47 33.4 47H32.6C29.2397 47 27.5595 47 26.2761 46.346C25.1471 45.7708 24.2292 44.8529 23.654 43.7239C23 42.4405 23 40.7603 23 37.4V36.6ZM32.6 29H33.4C35.1132 29 36.2777 29.0016 37.1779 29.0751C38.0548 29.1467 38.5032 29.2766 38.816 29.436C39.5686 29.8195 40.1805 30.4314 40.564 31.184C40.7234 31.4968 40.8533 31.9452 40.9249 32.8221C40.9984 33.7223 41 34.8868 41 36.6V37.4C41 39.1132 40.9984 40.2777 40.9249 41.1779C40.8533 42.0548 40.7234 42.5032 40.564 42.816C40.1805 43.5686 39.5686 44.1805 38.816 44.564C38.5032 44.7234 38.0548 44.8533 37.1779 44.9249C36.2777 44.9984 35.1132 45 33.4 45H32.6C30.8868 45 29.7223 44.9984 28.8221 44.9249C27.9452 44.8533 27.4968 44.7234 27.184 44.564C26.4314 44.1805 25.8195 43.5686 25.436 42.816C25.2766 42.5032 25.1467 42.0548 25.0751 41.1779C25.0016 40.2777 25 39.1132 25 37.4V36.6C25 34.8868 25.0016 33.7223 25.0751 32.8221C25.1467 31.9452 25.2766 31.4968 25.436 31.184C25.8195 30.4314 26.4314 29.8195 27.184 29.436C27.4968 29.2766 27.9452 29.1467 28.8221 29.0751C29.7223 29.0016 30.8868 29 32.6 29Z" fill="white"/>
<g filter="url(#filter2_f_1_179)">
<ellipse cx="33.5" cy="60.5" rx="11.5" ry="6.5" fill="#D4467E"/>
</g>
</g>
<rect x="9" y="13" width="48" height="48" rx="12" stroke="url(#paint7_linear_1_179)" stroke-opacity="0.5" stroke-width="0.8" shape-rendering="crispEdges"/>
</g>
<defs>
<filter id="filter0_di_1_179" x="-11.4" y="-7.39999" width="92.8" height="88.8" filterUnits="userSpaceOnUse" color-interpolation-filters="sRGB">
<feFlood flood-opacity="0" result="BackgroundImageFix"/>
<feColorMatrix in="SourceAlpha" type="matrix" values="0 0 0 0 0 0 0 0 0 0 0 0 0 0 0 0 0 0 127 0" result="hardAlpha"/>
<feOffset dx="8" dy="4"/>
<feGaussianBlur stdDeviation="8"/>
<feComposite in2="hardAlpha" operator="out"/>
<feColorMatrix type="matrix" values="0 0 0 0 0 0 0 0 0 0 0 0 0 0 0 0 0 0 0.08 0"/>
<feBlend mode="normal" in2="BackgroundImageFix" result="effect1_dropShadow_1_179"/>
<feBlend mode="normal" in="SourceGraphic" in2="effect1_dropShadow_1_179" result="shape"/>
<feColorMatrix in="SourceAlpha" type="matrix" values="0 0 0 0 0 0 0 0 0 0 0 0 0 0 0 0 0 0 127 0" result="hardAlpha"/>
<feOffset/>
<feGaussianBlur stdDeviation="4"/>
<feComposite in2="hardAlpha" operator="arithmetic" k2="-1" k3="1"/>
<feColorMatrix type="matrix" values="0 0 0 0 0.744549 0 0 0 0 0.0509804 0 0 0 0 0.988235 0 0 0 0.32 0"/>
<feBlend mode="normal" in2="shape" result="effect2_innerShadow_1_179"/>
</filter>
<filter id="filter1_f_1_179" x="5" y="9" width="56" height="56" filterUnits="userSpaceOnUse" color-interpolation-filters="sRGB">
<feFlood flood-opacity="0" result="BackgroundImageFix"/>
<feBlend mode="normal" in="SourceGraphic" in2="BackgroundImageFix" result="shape"/>
<feGaussianBlur stdDeviation="6" result="effect1_foregroundBlur_1_179"/>
</filter>
<filter id="filter2_f_1_179" x="4" y="36" width="59" height="49" filterUnits="userSpaceOnUse" color-interpolation-filters="sRGB">
<feFlood flood-opacity="0" result="BackgroundImageFix"/>
<feBlend mode="normal" in="SourceGraphic" in2="BackgroundImageFix" result="shape"/>
<feGaussianBlur stdDeviation="9" result="effect1_foregroundBlur_1_179"/>
</filter>
<linearGradient id="paint0_linear_1_179" x1="9" y1="13" x2="57" y2="61" gradientUnits="userSpaceOnUse">
<stop stop-color="#F8FBFF"/>
<stop offset="1" stop-color="white" stop-opacity="0"/>
</linearGradient>
<radialGradient id="paint1_radial_1_179" cx="0" cy="0" r="1" gradientUnits="userSpaceOnUse" gradientTransform="translate(29 44) rotate(-55.3758) scale(25.5196)">
<stop stop-color="#B13589"/>
<stop offset="0.79309" stop-color="#C62F94"/>
<stop offset="1" stop-color="#8A3AC8"/>
</radialGradient>
<radialGradient id="paint2_radial_1_179" cx="0" cy="0" r="1" gradientUnits="userSpaceOnUse" gradientTransform="translate(28 52) rotate(-65.1363) scale(22.5942)">
<stop stop-color="#E0E8B7"/>
<stop offset="0.444662" stop-color="#FB8A2E"/>
<stop offset="0.71474" stop-color="#E2425C"/>
<stop offset="1" stop-color="#E2425C" stop-opacity="0"/>
</radialGradient>
<radialGradient id="paint3_radial_1_179" cx="0" cy="0" r="1" gradientUnits="userSpaceOnUse" gradientTransform="translate(17.5 24) rotate(-8.1301) scale(38.8909 8.31836)">
<stop offset="0.156701" stop-color="#406ADC"/>
<stop offset="0.467799" stop-color="#6A45BE"/>
<stop offset="1" stop-color="#6A45BE" stop-opacity="0"/>
</radialGradient>
<radialGradient id="paint4_radial_1_179" cx="0" cy="0" r="1" gradientUnits="userSpaceOnUse" gradientTransform="translate(29 44) rotate(-55.3758) scale(25.5196)">
<stop stop-color="#B13589"/>
<stop offset="0.79309" stop-color="#C62F94"/>
<stop offset="1" stop-color="#8A3AC8"/>
</radialGradient>
<radialGradient id="paint5_radial_1_179" cx="0" cy="0" r="1" gradientUnits="userSpaceOnUse" gradientTransform="translate(28 52) rotate(-65.1363) scale(22.5942)">
<stop stop-color="#E0E8B7"/>
<stop offset="0.444662" stop-color="#FB8A2E"/>
<stop offset="0.71474" stop-color="#E2425C"/>
<stop offset="1" stop-color="#E2425C" stop-opacity="0"/>
</radialGradient>
<radialGradient id="paint6_radial_1_179" cx="0" cy="0" r="1" gradientUnits="userSpaceOnUse" gradientTransform="translate(17.5 24) rotate(-8.1301) scale(38.8909 8.31836)">
<stop offset="0.156701" stop-color="#406ADC"/>
<stop offset="0.467799" stop-color="#6A45BE"/>
<stop offset="1" stop-color="#6A45BE" stop-opacity="0"/>
</radialGradient>
<linearGradient id="paint7_linear_1_179" x1="10" y1="12" x2="55.5" y2="61" gradientUnits="userSpaceOnUse">
<stop stop-color="#D8D8D8" stop-opacity="0.05"/>
<stop offset="1" stop-color="white" stop-opacity="0.4"/>
</linearGradient>
<clipPath id="clip0_1_179">
<rect x="9" y="13" width="48" height="48" rx="12" fill="white"/>
</clipPath>
</defs>
</svg>
