<svg version="1.1" xmlns="http://www.w3.org/2000/svg" width="24" height="24" viewBox="0 0 24 24">
  <path d="m8.662 3.149 0.058 0 0.064 0 0.068 0c0.076 0 0.153 0 0.229 0l0.165 0q0.18 0 0.36 0 0.267 0 0.535 0 0.478 0 0.955 0 0.418 0 0.836 0h0.056l0.225 0q1.055 0 2.11 0 0.938 0 1.876 0a7502.451 7502.451 0 0 1 2.331 0h0.056q0.418 0 0.836 0 0.475 0 0.95 0 0.266 0 0.532 0 0.198 0 0.396 0 0.08 0 0.161 0 0.109 0 0.218 0l0.064 0 0.058 0h0.05C21.899 3.152 21.899 3.152 21.992 3.175v0.257h-0.047l-0.006 0.054c-0.035 0.172 -0.102 0.331 -0.184 0.486 -0.032 0.067 -0.049 0.135 -0.067 0.207h-0.047l-0.019 0.083c-0.036 0.144 -0.1 0.273 -0.167 0.405 -0.08 0.161 -0.145 0.328 -0.207 0.496C21.222 5.23 21.222 5.23 21.175 5.3h-0.047v0.093l-0.075 0c-1.095 0.001 -2.19 0.002 -3.285 0.004l-0.05 0a12395.206 12395.206 0 0 0 -1.611 0.002l-0.053 0q-0.855 0.001 -1.71 0.002a1999.097 1999.097 0 0 0 -2.055 0.003q-0.393 0.001 -0.786 0.001 -0.395 0 -0.791 0.001 -0.214 0.001 -0.428 0 -0.196 0 -0.392 0.001 -0.071 0 -0.142 0c-0.352 -0.005 -0.352 -0.005 -0.692 0.08l-0.047 0.047c-0.047 0.016 -0.095 0.03 -0.143 0.044 -0.124 0.037 -0.234 0.081 -0.347 0.143a22.179 22.179 0 0 1 -0.09 0.044c-0.221 0.111 -0.44 0.241 -0.61 0.423 -0.061 0.063 -0.122 0.122 -0.191 0.177 -0.059 0.051 -0.085 0.079 -0.112 0.15 -0.023 0.047 -0.023 0.047 -0.076 0.085 -0.111 0.096 -0.18 0.221 -0.228 0.359h-0.047l-0.047 0.187h-0.047c-0.004 0.014 -0.008 0.027 -0.013 0.041 -0.035 0.109 -0.076 0.207 -0.127 0.309v0.07h-0.047q-0.017 0.061 -0.034 0.121l-0.019 0.068c-0.018 0.066 -0.018 0.066 -0.027 0.13 -0.016 0.063 -0.038 0.08 -0.084 0.124 -0.023 0.058 -0.023 0.058 -0.039 0.121 -0.006 0.021 -0.012 0.042 -0.018 0.064L6.654 8.241h-0.047l-0.008 0.062c-0.015 0.076 -0.036 0.136 -0.067 0.206 -0.077 0.18 -0.142 0.363 -0.204 0.549h-0.047l-0.008 0.062c-0.015 0.076 -0.036 0.136 -0.067 0.206 -0.046 0.106 -0.086 0.212 -0.124 0.321 -0.036 0.103 -0.075 0.199 -0.126 0.295 -0.043 0.089 -0.076 0.182 -0.111 0.274a6.42 6.42 0 0 1 -0.087 0.214c-0.047 0.111 -0.09 0.224 -0.131 0.337 -0.041 0.111 -0.084 0.217 -0.139 0.321 -0.04 0.081 -0.07 0.167 -0.102 0.251 -0.05 0.131 -0.102 0.261 -0.154 0.39 -0.079 0.198 -0.158 0.396 -0.233 0.595 -0.06 0.157 -0.12 0.313 -0.187 0.467 -0.064 0.156 -0.124 0.313 -0.182 0.472 -0.037 0.101 -0.078 0.2 -0.121 0.299 -0.055 0.131 -0.105 0.264 -0.152 0.398 -0.038 0.106 -0.077 0.209 -0.124 0.311 -0.039 0.086 -0.074 0.173 -0.11 0.261l-0.021 0.05c-0.045 0.11 -0.088 0.222 -0.13 0.334l-0.037 0.1c-0.006 0.016 -0.012 0.032 -0.018 0.049L3.829 15.292h-0.047l-0.018 0.09c-0.028 0.124 -0.073 0.237 -0.123 0.353 -0.054 0.131 -0.104 0.26 -0.14 0.397h-0.047l-0.016 0.089c-0.025 0.111 -0.068 0.207 -0.117 0.31 -0.05 0.113 -0.087 0.231 -0.124 0.349h-0.047l-0.047 0.187H0.537c0 -0.289 0 -0.289 0.054 -0.403l0.032 -0.071L0.654 16.529c0.038 -0.086 0.073 -0.172 0.102 -0.261 0.07 -0.213 0.164 -0.417 0.261 -0.619a1.891 1.891 0 0 0 0.065 -0.173c0.045 -0.137 0.099 -0.271 0.153 -0.404l0.03 -0.076 0.06 -0.148q0.05 -0.123 0.099 -0.247 0.023 -0.057 0.045 -0.113c0.059 -0.148 0.118 -0.296 0.176 -0.445 0.051 -0.132 0.103 -0.263 0.156 -0.395 0.03 -0.075 0.059 -0.15 0.084 -0.227l0.017 -0.053L1.914 13.331h0.047l0.009 -0.041c0.023 -0.106 0.048 -0.207 0.085 -0.309h0.047l0.009 -0.041c0.023 -0.106 0.048 -0.207 0.085 -0.309h0.047l0.014 -0.056C2.315 12.328 2.315 12.328 2.358 12.21h0.047l0.009 -0.051c0.013 -0.064 0.03 -0.125 0.049 -0.187l0.018 -0.061C2.498 11.86 2.498 11.86 2.521 11.813h0.047l0.008 -0.059c0.017 -0.092 0.045 -0.177 0.075 -0.265l0.017 -0.049q0.02 -0.059 0.04 -0.118h0.047l0.009 -0.043 0.012 -0.057 0.012 -0.057C2.802 11.113 2.802 11.113 2.825 11.043h0.047l0.008 -0.062c0.015 -0.076 0.036 -0.136 0.067 -0.206a4.786 4.786 0 0 0 0.123 -0.315c0.044 -0.125 0.092 -0.248 0.144 -0.37a14.148 14.148 0 0 0 0.102 -0.251l0.018 -0.045L3.385 9.665l0.05 -0.124 0.022 -0.055q0.022 -0.055 0.044 -0.109c0.089 -0.222 0.174 -0.445 0.258 -0.668h0.047l0.009 -0.061c0.014 -0.077 0.034 -0.147 0.058 -0.22l0.023 -0.071C3.922 8.288 3.922 8.288 3.958 8.228c0.035 -0.059 0.054 -0.111 0.072 -0.177l0.017 -0.06L4.062 7.938l0.023 -0.07h0.047l0.008 -0.049c0.017 -0.074 0.041 -0.141 0.069 -0.212l0.031 -0.08c0.035 -0.088 0.07 -0.175 0.106 -0.263 0.018 -0.047 0.031 -0.094 0.042 -0.143h0.047l0.011 -0.041c0.046 -0.163 0.108 -0.317 0.176 -0.472l0.021 -0.047C4.789 6.223 4.942 5.892 5.136 5.58a14.661 14.661 0 0 0 0.093 -0.163h0.047v-0.093h0.047v-0.07l0.07 -0.047 0.023 -0.07 0.047 -0.023 0.031 -0.052c0.044 -0.073 0.095 -0.131 0.153 -0.193l0.06 -0.065a4.809 4.809 0 0 1 0.12 -0.123c0.057 -0.056 0.057 -0.056 0.103 -0.117 0.053 -0.065 0.11 -0.112 0.176 -0.164 0.093 -0.073 0.178 -0.148 0.257 -0.236 0.042 -0.036 0.075 -0.045 0.128 -0.054v-0.047l0.045 -0.02c0.052 -0.022 0.052 -0.022 0.072 -0.073h0.07l0.023 -0.07c0.049 -0.03 0.049 -0.03 0.111 -0.058 0.083 -0.039 0.161 -0.081 0.239 -0.128 0.132 -0.07 0.132 -0.07 0.187 -0.07v-0.047l0.063 -0.022 0.086 -0.03 0.045 -0.016a4.716 4.716 0 0 0 0.255 -0.099c0.112 -0.046 0.225 -0.07 0.344 -0.089v-0.047l0.042 -0.01q0.094 -0.023 0.187 -0.047l0.066 -0.016 0.063 -0.016 0.058 -0.014c0.151 -0.04 0.151 -0.04 0.215 -0.04" fill="#FFAE01"/>
  <path d="M21.058 5.51h2.591v0.257h-0.047l-0.006 0.07c-0.012 0.086 -0.044 0.151 -0.085 0.227 -0.049 0.099 -0.083 0.205 -0.12 0.31h-0.047l-0.007 0.057c-0.02 0.101 -0.052 0.196 -0.086 0.293h-0.047l-0.008 0.039c-0.028 0.131 -0.064 0.256 -0.109 0.382h-0.047l-0.016 0.088c-0.025 0.11 -0.064 0.209 -0.109 0.313 -0.052 0.12 -0.098 0.242 -0.146 0.364l-0.027 0.07c-0.039 0.099 -0.077 0.198 -0.113 0.299C22.599 8.358 22.599 8.358 22.553 8.428a2.638 2.638 0 0 0 -0.038 0.133l-0.018 0.07c-0.004 0.018 -0.009 0.035 -0.014 0.054h-0.047l-0.019 0.079c-0.082 0.326 -0.082 0.326 -0.168 0.458 -0.016 0.051 -0.016 0.051 -0.023 0.093h-0.047c0.001 0.027 0.001 0.027 0.001 0.054 -0.002 0.082 -0.013 0.121 -0.072 0.179a3.992 3.992 0 0 0 -0.057 0.159c-0.035 0.104 -0.074 0.191 -0.13 0.285 -0.015 0.053 -0.015 0.053 -0.023 0.105 -0.017 0.086 -0.04 0.15 -0.093 0.222l-0.047 0.023 0.004 0.058c-0.005 0.102 -0.035 0.174 -0.074 0.268h-0.047l-0.008 0.061c-0.016 0.083 -0.041 0.153 -0.072 0.231 -0.038 0.097 -0.074 0.193 -0.107 0.292h-0.047l-0.009 0.063c-0.016 0.087 -0.043 0.159 -0.083 0.238 -0.098 0.199 -0.181 0.418 -0.235 0.634l-0.047 0.093a11.79 11.79 0 0 0 -0.047 0.14l-0.023 0.047a11.65 11.65 0 0 0 -0.051 0.141C20.895 12.654 20.895 12.654 20.848 12.724a3.875 3.875 0 0 0 -0.05 0.144l-0.025 0.077L20.755 13.004h-0.047l0.016 0.041c0.01 0.073 -0.019 0.088 -0.063 0.146 -0.025 0.076 -0.047 0.153 -0.047 0.233h-0.047l-0.023 0.117h-0.047l-0.008 0.042 -0.011 0.056 -0.011 0.055C20.451 13.751 20.451 13.751 20.417 13.807c-0.052 0.089 -0.065 0.181 -0.086 0.281L20.311 14.148l-0.07 0.023v0.163l-0.047 0.023c-0.023 0.044 -0.023 0.044 -0.042 0.098l-0.024 0.064c-0.04 0.107 -0.078 0.215 -0.116 0.322 -0.086 0.243 -0.086 0.243 -0.142 0.352l-0.024 0.048 -0.024 0.047c-0.059 0.125 -0.099 0.254 -0.141 0.386 -0.023 0.062 -0.023 0.062 -0.07 0.108a2.755 2.755 0 0 0 -0.048 0.14c-0.044 0.137 -0.044 0.137 -0.069 0.187h-0.047l-0.004 0.054c-0.06 0.272 -0.231 0.52 -0.366 0.76A3.665 3.665 0 0 0 19.004 17.066h-0.047l-0.006 0.036c-0.035 0.112 -0.094 0.211 -0.181 0.29l-0.047 0.07h-0.047l0.023 0.07 -0.069 0.054c-0.098 0.083 -0.175 0.181 -0.253 0.283 -0.052 0.06 -0.105 0.106 -0.168 0.154l-0.061 0.063C18.093 18.14 18.093 18.14 18.023 18.163l-0.022 0.044c-0.03 0.06 -0.062 0.085 -0.118 0.12h-0.047l-0.047 0.093h-0.047l-0.023 0.047c-0.048 0.054 -0.069 0.07 -0.14 0.093l-0.023 0.047h-0.07v0.047a12.117 12.117 0 0 1 -0.101 0.058l-0.057 0.033C17.276 18.77 17.276 18.77 17.206 18.77l-0.023 0.07c-0.056 0.032 -0.056 0.032 -0.125 0.063l-0.069 0.031C16.926 18.957 16.926 18.957 16.856 18.957v0.047l-0.075 0.024q-0.049 0.016 -0.097 0.032l-0.049 0.016c-0.096 0.031 -0.096 0.031 -0.175 0.092 -0.067 0.021 -0.133 0.039 -0.2 0.057q-0.058 0.015 -0.115 0.031l-0.056 0.015c-0.071 0.02 -0.14 0.043 -0.209 0.066L15.829 19.354l-0.052 0.018c-0.142 0.047 -0.269 0.062 -0.418 0.061l-0.069 0c-0.076 0 -0.152 0 -0.228 0l-0.165 0c-0.135 0 -0.27 0 -0.406 0 -0.162 0 -0.324 0 -0.486 0 -0.299 0 -0.598 0 -0.897 0q-0.444 -0.001 -0.888 -0.001h-0.056l-0.224 0q-1.022 0 -2.044 -0.001a2690.802 2690.802 0 0 0 -2.468 -0.001q-0.948 0 -1.897 -0.001l-0.556 0q-0.584 0 -1.168 -0.001 -0.242 0 -0.483 0 -0.221 0 -0.442 0 -0.08 0 -0.16 0 -0.108 0 -0.217 0l-0.064 0 -0.058 0h-0.05c-0.049 -0.003 -0.093 -0.013 -0.14 -0.026 -0.044 -0.311 0.118 -0.618 0.257 -0.887 0.073 -0.152 0.13 -0.309 0.186 -0.468C2.661 17.977 2.661 17.977 2.685 17.93h0.047l0.006 -0.057c0.022 -0.105 0.059 -0.2 0.111 -0.293l0.047 -0.023c0.02 -0.053 0.02 -0.053 0.036 -0.115 0.032 -0.115 0.032 -0.115 0.057 -0.165h0.047v-0.093l0.075 0c1.096 -0.001 2.191 -0.002 3.287 -0.004l0.05 0a12392.125 12392.125 0 0 0 1.612 -0.002l0.053 0q0.855 -0.001 1.711 -0.002a1999.191 1999.191 0 0 0 2.056 -0.003q0.393 -0.001 0.787 -0.001 0.395 0 0.791 -0.001a146.732 146.732 0 0 1 0.428 0q0.196 0 0.392 -0.001 0.071 0 0.142 0c0.327 0.005 0.327 0.005 0.639 -0.08 0.076 -0.03 0.15 -0.057 0.229 -0.079 0.093 -0.027 0.175 -0.063 0.261 -0.108 0.083 -0.04 0.17 -0.066 0.257 -0.093v-0.047l0.14 -0.07v-0.047h0.093c0.034 -0.03 0.034 -0.03 0.07 -0.07l0.073 -0.047c0.073 -0.041 0.073 -0.041 0.09 -0.117l0.053 -0.02c0.13 -0.053 0.211 -0.177 0.298 -0.283l0.047 -0.047 -0.023 -0.047 0.044 -0.019c0.057 -0.027 0.057 -0.027 0.096 -0.098h0.047l0.02 -0.051a8.708 8.708 0 0 1 0.053 -0.128c0.023 -0.052 0.023 -0.052 0.02 -0.101h0.07l0.018 -0.083c0.025 -0.101 0.067 -0.179 0.123 -0.267h0.047l0.009 -0.061c0.017 -0.093 0.042 -0.18 0.085 -0.266h0.047v-0.14h0.047l0.006 -0.058c0.015 -0.069 0.029 -0.109 0.061 -0.169 0.056 -0.106 0.088 -0.217 0.12 -0.333h0.047l0.019 -0.079c0.075 -0.3 0.075 -0.3 0.144 -0.435l0.023 -0.07a1.02 1.02 0 0 1 0.07 -0.163c0.04 -0.076 0.071 -0.153 0.101 -0.233 0.049 -0.128 0.1 -0.254 0.153 -0.38 0.034 -0.083 0.065 -0.167 0.096 -0.251l0.023 -0.047c0.044 -0.1 0.084 -0.199 0.117 -0.304h0.047l0.006 -0.055c0.026 -0.128 0.074 -0.251 0.137 -0.366 0.027 -0.051 0.027 -0.051 0.02 -0.139h0.047l0.047 -0.21h0.047l0.009 -0.061c0.015 -0.079 0.037 -0.152 0.063 -0.228l0.026 -0.075L18.817 11.089h0.047l0.014 -0.051c0.031 -0.116 0.063 -0.232 0.103 -0.346h0.047l0.013 -0.08c0.029 -0.134 0.083 -0.257 0.137 -0.382 0.044 -0.102 0.078 -0.201 0.107 -0.308h0.047l0.008 -0.062c0.015 -0.076 0.036 -0.136 0.067 -0.206a4.786 4.786 0 0 0 0.123 -0.315c0.044 -0.125 0.092 -0.248 0.144 -0.37 0.048 -0.113 0.093 -0.227 0.138 -0.341q0.029 -0.072 0.057 -0.143c0.056 -0.138 0.108 -0.277 0.16 -0.417 0.028 -0.077 0.059 -0.15 0.096 -0.223a5.65 5.65 0 0 0 0.041 -0.115c0.046 -0.129 0.102 -0.251 0.161 -0.374 0.031 -0.069 0.055 -0.139 0.079 -0.211l0.035 -0.079c0.037 -0.09 0.06 -0.176 0.082 -0.271h0.047l0.018 -0.079c0.03 -0.119 0.075 -0.229 0.123 -0.341q0.032 -0.077 0.064 -0.153 0.022 -0.053 0.044 -0.106l0.021 -0.05 0.019 -0.044c0.017 -0.045 0.029 -0.09 0.04 -0.137h0.047l0.019 -0.085c0.022 -0.088 0.056 -0.162 0.098 -0.242z" fill="#FFAE01"/>
  <path d="m3.105 10.249 0.047 0.023 -0.047 0.023z" fill="#FFAE01"/>
  <path d="" fill="#FFAE01"/>
  <path d="" fill="#FFAE01"/>
  <path d="" fill="#FFAE01"/>
  <path d="" fill="#FFAE01"/>
  <path d="" fill="#FFAE01"/>
  <path d="" fill="#FFAE01"/>
  <path d="" fill="#FFAE01"/>
  <path d="" fill="#FFAE01"/>
  <path d="" fill="#FFAE01"/>
  <path d="" fill="#FFAE01"/>
  <path d="" fill="#FFAE01"/>
  <path d="" fill="#FFAE01"/>
  <path d="" fill="#FFAE01"/>
  <path d="" fill="#FFAE01"/>
  <path d="" fill="#FFAE01"/>
  <path d="" fill="#FFAE01"/>
  <path d="" fill="#FFAE01"/>
  <path d="" fill="#FFAE01"/>
  <path d="" fill="#FFAE01"/>
  <path d="m8.171 5.907 0.047 0.023Z" fill="#FFAE01"/>
  <path d="" fill="#FFAE01"/>
  <path d="" fill="#FFAE01"/>
  <path d="" fill="#FFAE01"/>
  <path d="" fill="#FFAE01"/>
  <path d="" fill="#FFAE01"/>
  <path d="" fill="#FFAE01"/>
  <path d="" fill="#FFAE01"/>
  <path d="" fill="#FFAE01"/>
  <path d="" fill="#FFAE01"/>
  <path d="" fill="#FFAE01"/>
  <path d="" fill="#FFAE01"/>
  <path d="" fill="#FFAE01"/>
  <path d="" fill="#FFAE01"/>
  <path d="" fill="#FFAE01"/>
  <path d="" fill="#FFAE01"/>
  <path d="" fill="#FFAE01"/>
  <path d="" fill="#FFAE01"/>
  <path d="" fill="#FFAE01"/>
  <path d="" fill="#FFAE01"/>
  <path d="" fill="#FFAE01"/>
  <path d="" fill="#FFAE01"/>
  <path d="" fill="#FFAE01"/>
</svg>
